<svg height="80" width="140" xmlns="http://www.w3.org/2000/svg"><g fill="none"><path d="M26.0173 33.9498l-6.5086 3.9499 6.5086 3.9498-6.5086 3.9499L13 41.8166l6.5087-3.9498L13 33.9498 19.5087 30zM19.474 47.0502l6.5087-3.9499 6.5086 3.9499L25.9827 51zm6.5433-5.2336l6.5087-3.9498-6.5087-3.917L32.4913 30 39 33.9498l-6.5087 3.9499L39 41.8495l-6.5087 3.9499z" fill="#0061ff"/><path d="M44 34.0627h5.1921c3.3135 0 6.0462 1.8598 6.0462 6.1107v.8967c0 4.2841-2.562 6.2103-5.9437 6.2103H44zm2.9035 2.3912v8.4022h2.2203c1.8788 0 3.1426-1.1956 3.1426-3.8524v-.6974c0-2.6569-1.3322-3.8524-3.245-3.8524zm9.872.1328h2.3227l.3758 2.4908c.444-1.6937 1.5713-2.5904 3.6208-2.5904h.7173v2.856h-1.1955c-2.357 0-2.9377.7971-2.9377 3.0554v4.9152h-2.8693v-10.727zm7.6173 5.5794v-.299c0-3.5867 2.357-5.546 5.568-5.546 3.2792 0 5.5678 1.9593 5.5678 5.546v.299c0 3.5202-2.2203 5.4132-5.5679 5.4132-3.5525-.0332-5.5679-1.893-5.5679-5.4132zm8.1981-.0333v-.2656c0-1.9927-1.0247-3.1882-2.6643-3.1882-1.6055 0-2.6644 1.096-2.6644 3.1882v.2656c0 1.9262 1.0247 3.0222 2.6644 3.0222 1.6396-.0332 2.6643-1.096 2.6643-3.0222zm4.4407-5.546h2.3911l.2733 2.0257c.5807-1.3616 1.8104-2.2915 3.6208-2.2915 2.801 0 4.6456 1.9594 4.6456 5.5794v.2989c0 3.5203-2.0495 5.38-4.6456 5.38-1.742 0-2.9376-.7638-3.5183-1.9926V51h-2.801zm8.0273 5.546v-.2324c0-2.1255-1.1272-3.1882-2.6302-3.1882-1.6055 0-2.6644 1.1955-2.6644 3.1882v.1992c0 1.893 1.0248 3.0886 2.6302 3.0886 1.6397-.0332 2.6644-1.0627 2.6644-3.0554zm7.1392 3.1882l-.239 1.9594h-2.4595V33h2.801v5.4797c.6149-1.3948 1.8446-2.1587 3.5867-2.1587 2.6302.0332 4.5773 1.7934 4.5773 5.3469V42c0 3.5535-1.8446 5.5793-4.6456 5.5793-1.8446-.0332-3.0402-.8634-3.6209-2.2583zM97.527 42v-.2657c0-1.9594-1.093-3.0553-2.6302-3.0553-1.5713 0-2.6644 1.2287-2.6644 3.0885V42c0 1.9926 1.0589 3.155 2.6302 3.155 1.6738 0 2.6644-1.0295 2.6644-3.155zm4.1674.166v-.2988c0-3.5868 2.357-5.5462 5.5679-5.5462 3.2792 0 5.5679 1.9594 5.5679 5.5462v.2989c0 3.5202-2.2545 5.4132-5.568 5.4132-3.5525-.0332-5.5678-1.893-5.5678-5.4132zm8.2323-.0332v-.2656c0-1.9927-1.0248-3.1882-2.6644-3.1882-1.6055 0-2.6644 1.096-2.6644 3.1882v.2656c0 1.9262 1.0247 3.0222 2.6644 3.0222 1.6396-.0332 2.6644-1.096 2.6644-3.0222zm6.661-.3985l-3.86-5.1476h3.3134l2.2203 3.2214 2.2545-3.2214h3.2792l-3.9282 5.1144L124 47.2804h-3.245l-2.5278-3.5535-2.4595 3.5535h-3.3817z" fill="#000"/></g></svg>