<svg xmlns="http://www.w3.org/2000/svg" width="140" height="80"><g fill="#22CD9A" fill-rule="evenodd"><path fill-rule="nonzero" d="M19.347 48.4492l-.198.066c-1.276.4221-3.1628 1.0717-4.8571 1.8474-.0908.0422-.1502.1603-.1502.1603a44.6981 44.6981 0 0 1-.1162.2631l-.0052.0129c-.1909.4302-.4527 1.0774-.5633 1.3401l-.088.2077a.0874.0874 0 0 0 .0198.0956.0892.0892 0 0 0 .0581.0245.0849.0849 0 0 0 .0391-.0092l.2042-.0964c.4649-.2198 1.05-.5528 1.6661-.844l.021-.0097a1460.9194 1460.9194 0 0 0 3.2854-1.5538c.0008-.0004.1287-.068.1929-.1957l.5956-1.1886a.0862.0862 0 1 0-.1041-.1201m-4.7566-1.8423c.083-.1631.4688-.9023.5564-1.0678l.0161-.0281c2.5837-4.8528 5.7327-9.43 9.3579-13.6038l.1005-.1157a.1132.1132 0 0 0 .0137-.1294.1169.1169 0 0 0-.1174-.059l-.151.0209c-2.3795.3262-4.7864.7777-7.1583 1.3421-.2352.065-.3877.2181-.4204.2539a80.2484 80.2484 0 0 0-4.9983 6.6263c-.0775.115-.086.3913-.086.3913s.389 2.972.9547 5.1625c-1.4026 4.0144-2.6539 9.3038-2.6539 9.3038a.115.115 0 0 0 .0182.1.1193.1193 0 0 0 .0904.0474h.7985a.1153.1153 0 0 0 .111-.0755l.0553-.149a73.5584 73.5584 0 0 1 2.7705-6.5243c.2393-.4954.742-1.4956.742-1.4956"/><path d="M25.2434 32.943l-.0016-.1511a.1152.1152 0 0 0-.0759-.1065.1157.1157 0 0 0-.127.0321l-.0998.115c-4.2267 4.8668-7.7789 10.2695-10.5595 16.0558l-.0645.1354a.1149.1149 0 0 0 .0206.1278.1146.1146 0 0 0 .0815.0365.1252.1252 0 0 0 .0464-.0088l.1392-.0575c2.3738-.979 4.7994-1.8282 7.2075-2.5212a.5475.5475 0 0 0 .335-.2743c1.0571-2.0488 3.5068-6.0154 3.5068-6.0154.0626-.09.0473-.2221.0473-.2221s-.429-4.7447-.456-7.1458"/><path d="M28.5752 25.1478c-1.227-.0261-2.6858.2366-4.3385.7793-.2478.0868-.4435.223-.6206.3961a79.9297 79.9297 0 0 0-4.8603 4.958l-.1183.131a.114.114 0 0 0-.0133.1342c.0254.043.075.065.1239.0546l.1719-.037c2.492-.5302 5.0052-.9356 7.4714-1.2039a.5835.5835 0 0 1 .4511.1466.57.57 0 0 1 .188.4339c-.0415 2.4368.0477 4.886.2664 7.2795l.0145.1563a.1142.1142 0 0 0 .0848.1004c.0653.0052.1016-.0128.1246-.045l.0904-.1281a68.4416 68.4416 0 0 1 4.494-5.7072c.1755-.2025.223-.3298.2566-.5134.5007-3.1897-.2728-5.5478-.964-6.1447-.6-.5174-1.4708-.7613-2.8226-.7906zm11.7576 22.7388h-1.4054c-.1317 0-.2196-.0878-.2196-.2196V37.588c0-.1318.0879-.2196.2196-.2196h1.4054c.1317 0 .2196.0878.2196.2195v1.076h.022c.461-.9003 1.3833-1.5371 2.7887-1.5371.8344 0 1.625.3074 2.152.7905.1097.1098.1317.1976.0439.3074l-.8125 1.076c-.0878.1098-.1976.1318-.3074.044-.4831-.3075-1.0101-.5051-1.625-.5051-1.603 0-2.2617 1.2516-2.2617 3.0742v5.7532c0 .1318-.0879.2196-.2196.2196zm10.8476.2415c-2.0422 0-3.5793-1.054-4.1502-2.8326-.2415-.7247-.3513-1.4493-.3513-2.679 0-1.2077.1098-1.9324.3513-2.657.571-1.8006 2.108-2.8327 4.1502-2.8327s3.5793 1.032 4.1502 2.8327c.2416.7246.3514 1.4493.3514 2.657 0 1.2297-.1098 1.9543-.3514 2.679-.571 1.7786-2.108 2.8326-4.1502 2.8326zm0-1.7127c1.1638 0 2.0202-.593 2.3716-1.647.1756-.5709.2415-1.1418.2415-2.152 0-1.01-.0659-1.559-.2415-2.13-.3514-1.054-1.2078-1.6468-2.3716-1.6468s-2.0202.5929-2.3715 1.6469c-.1757.571-.2416 1.1199-.2416 2.13s.0659 1.581.2416 2.152c.3513 1.054 1.2077 1.6469 2.3715 1.6469zm9.091 1.4712H58.866c-.1318 0-.2196-.0878-.2196-.2196V33.1742c0-.1317.0878-.2196.2196-.2196h1.4053c.1318 0 .2196.0879.2196.2196v5.4019h.022c.505-.8345 1.4053-1.4493 2.9864-1.4493 1.8226 0 3.0962.8564 3.6232 2.5253.2854.8344.3733 1.6688.3733 2.9644 0 1.3175-.0879 2.152-.3733 2.9864-.527 1.6689-1.8006 2.5252-3.6232 2.5252-1.581 0-2.4814-.6368-2.9864-1.4712h-.022v1.0101c0 .1318-.0878.2196-.2196.2196zm2.7887-1.4712c1.1638 0 1.9543-.571 2.3057-1.603.1756-.549.2415-1.2297.2415-2.196 0-.9441-.0659-1.6249-.2415-2.1958-.3514-1.032-1.1419-1.581-2.3057-1.581s-1.9763.527-2.3276 1.581c-.1757.527-.2416 1.1419-.2416 2.1959s.0659 1.6908.2416 2.1959c.3513 1.054 1.1638 1.603 2.3276 1.603zm9.069-11.4186h-1.4932c-.1318 0-.2196-.0878-.2196-.2196v-1.603c0-.1317.0878-.2196.2196-.2196h1.4932c.1317 0 .2196.0879.2196.2196v1.603c0 .1318-.0879.2196-.2196.2196zm-.044 12.8898h-1.4053c-.1318 0-.2196-.0878-.2196-.2196V37.588c0-.1318.0878-.2196.2196-.2196h1.4054c.1317 0 .2195.0878.2195.2195V47.667c0 .1318-.0878.2196-.2195.2196zm12.0554 0h-1.4053c-.1318 0-.2196-.0878-.2196-.2196v-6.1484c0-1.6909-.7686-2.679-2.3496-2.679-1.4273 0-2.4155 1.01-2.4155 2.5692v6.2582c0 .1318-.0878.2196-.2196.2196h-1.4053c-.1318 0-.2196-.0878-.2196-.2196V37.588c0-.1318.0878-.2196.2196-.2196h1.4053c.1318 0 .2196.0878.2196.2195v.9662h.022c.505-.8125 1.5151-1.4273 2.9424-1.4273 2.2838 0 3.6452 1.559 3.6452 3.9526v6.5876c0 .1318-.0878.2196-.2196.2196zm11.9456 0h-1.4054c-.1317 0-.2196-.0878-.2196-.2196v-6.1484c0-1.6909-.7685-2.679-2.3496-2.679-1.4273 0-2.4154 1.01-2.4154 2.5692v6.2582c0 .1318-.0879.2196-.2196.2196H88.071c-.1317 0-.2196-.0878-.2196-.2196V33.1742c0-.1317.0879-.2196.2196-.2196h1.4054c.1317 0 .2196.0879.2196.2196v5.38h.022c.505-.8126 1.5151-1.4274 2.9424-1.4274 2.2837 0 3.6452 1.559 3.6452 3.9526v6.5876c0 .1318-.0879.2196-.2196.2196zm7.5758.2415c-2.0422 0-3.5793-1.054-4.1503-2.8326-.2415-.7247-.3513-1.4493-.3513-2.679 0-1.2077.1098-1.9324.3513-2.657.571-1.8006 2.108-2.8327 4.1503-2.8327 2.0421 0 3.5792 1.032 4.1502 2.8327.2415.7246.3513 1.4493.3513 2.657 0 1.2297-.1098 1.9543-.3513 2.679-.571 1.7786-2.108 2.8326-4.1502 2.8326zm0-1.7127c1.1638 0 2.0202-.593 2.3715-1.647.1757-.5709.2415-1.1418.2415-2.152 0-1.01-.0658-1.559-.2415-2.13-.3513-1.054-1.2077-1.6468-2.3715-1.6468-1.1639 0-2.0203.5929-2.3716 1.6469-.1757.571-.2415 1.1199-.2415 2.13s.0658 1.581.2415 2.152c.3513 1.054 1.2077 1.6469 2.3716 1.6469zm11.3307 1.7127c-2.0422 0-3.5793-1.054-4.1502-2.8326-.2416-.7247-.3514-1.4493-.3514-2.679 0-1.2077.1098-1.9324.3514-2.657.5709-1.8006 2.108-2.8327 4.1502-2.8327 2.0421 0 3.5793 1.032 4.1502 2.8327.2415.7246.3513 1.4493.3513 2.657 0 1.2297-.1098 1.9543-.3513 2.679-.571 1.7786-2.108 2.8326-4.1502 2.8326zm0-1.7127c1.1638 0 2.0202-.593 2.3715-1.647.1757-.5709.2416-1.1418.2416-2.152 0-1.01-.066-1.559-.2416-2.13-.3513-1.054-1.2077-1.6468-2.3715-1.6468-1.1638 0-2.0202.5929-2.3716 1.6469-.1756.571-.2415 1.1199-.2415 2.13s.0659 1.581.2415 2.152c.3514 1.054 1.2078 1.6469 2.3716 1.6469zm15.459 1.4712h-1.4054c-.1318 0-.2196-.0878-.2196-.2196v-1.01h-.022c-.505.8343-1.4053 1.4711-2.9864 1.4711-1.8225 0-3.0961-.8563-3.6231-2.5252-.2855-.8344-.3733-1.6689-.3733-2.9864 0-1.2956.0878-2.13.3733-2.9644.527-1.6689 1.8006-2.5253 3.6231-2.5253 1.581 0 2.4814.6148 2.9864 1.4493h.022v-5.4019c0-.1317.0878-.2196.2196-.2196h1.4053c.1318 0 .2196.0879.2196.2196V47.667c0 .1318-.0878.2196-.2196.2196zm-4.1942-1.4712c1.1638 0 1.9763-.549 2.3277-1.603.1756-.505.2415-1.1419.2415-2.196 0-1.054-.0659-1.6688-.2415-2.1958-.3514-1.054-1.1639-1.581-2.3277-1.581-1.1638 0-1.9543.549-2.3056 1.581-.1757.571-.2416 1.2517-.2416 2.1959 0 .9662.0659 1.6469.2416 2.1959.3513 1.032 1.1418 1.603 2.3056 1.603z"/></g></svg>