<svg height="80" width="140" xmlns="http://www.w3.org/2000/svg"><g fill="none"><path d="M67.542 43.8385l-1.3807 3.8696c0 .1555-.1535.1555-.1535.1555h-2.1479c-.1536 0-.1536 0-.1536-.1555 1.2272-3.2499 3.0684-8.822 4.449-12.5372 0-.1541.1537-.464.1537-1.2378 0-.155 0-.155.1536-.155h2.9148c.1537-.1549.1537 0 .1537 0 1.5334 4.4884 3.3748 9.2867 4.909 13.7759 0 .1542 0 .1542-.1529.1542h-2.4556c-.1529 0-.1529 0-.1529-.1542l-1.3813-3.8694H67.542zm4.2953-2.1665c-.4599-1.3929-1.534-4.3335-1.8406-5.8813-.307 1.3929-1.2277 3.8694-1.8412 5.8813zm5.9842.9288c0-3.0956 2.3013-5.5722 5.9824-5.5722.4614 0 .9214 0 1.2286.1549v-4.6433c0-.155 0-.155.1528-.155h2.3013c.1528 0 .1528 0 .1528.155v14.0842c0 .1555 0 .1555-.1528.1555-1.3813.6183-2.9157 1.0837-4.2955 1.0837-3.2226.1544-5.3696-1.5476-5.3696-5.2628zm7.0566-3.2506c-.3072-.1549-.7671-.1549-1.2271-.1549-1.9941 0-3.2212 1.2387-3.2212 3.4055 0 2.4757 1.3799 3.4053 3.0684 3.4053.46 0 1.0727-.1556 1.5342-.1556v-6.5003zm15.6491 3.0964c0 3.404-2.1485 5.5714-5.2168 5.5714-3.6813 0-5.2154-2.7857-5.2154-5.4172 0-3.2506 2.147-5.4173 5.3697-5.4173 3.2213-.155 5.0625 2.3217 5.0625 5.2631zm-7.8238 0c0 2.166.92 3.5597 2.607 3.5597 1.3814 0 2.4557-.9297 2.4557-3.5597 0-2.0126-.767-3.5604-2.6083-3.5604-1.3817.1542-2.4544 1.393-2.4544 3.5604zm12.4265-9.9064c.153 0 .153 0 .153.1549v4.9524c.7669-.309 1.534-.464 2.3011-.464 2.9157 0 4.757 2.1667 4.757 4.9533 0 3.7137-2.9157 6.0353-6.2912 6.0353-1.0728 0-2.147-.1542-3.2212-.464-.1528 0-.1528-.1543-.1528-.1543V32.6951c0-.155 0-.155.1528-.155zm1.9942 6.6551c-.6128 0-1.227.155-1.687.3099v6.3453c.307.1556.767.1556 1.227.1556 1.5342 0 3.3754-1.238 3.3754-3.7154-.1542-2.0116-1.3812-3.0954-2.9154-3.0954zm10.1265 3.8695c0 1.7035 1.0728 2.7857 3.2213 2.7857.767 0 1.687-.1543 2.6083-.464 0 0 .153 0 .153.1556v1.702c0 .154 0 .154-.153.3097-.767.464-1.8413.6183-3.2226.6183-3.8356 0-5.37-2.63-5.37-5.4174 0-3.0947 1.8414-5.5713 5.0642-5.5713 3.2213 0 4.4482 2.4766 4.4482 4.4884 0 .9289-.1527 1.3929-.1527 1.3929h-6.5967zm3.374-1.7027c.7672 0 .9215-.1541.9215-.1541v-.31c0-.6189-.46-2.0118-2.1485-2.0118-1.3799 0-2.147 1.083-2.3012 2.4759z" fill="#2d2e2d"/><path d="M35.1792 28L45.873 54.3115V28zM17 28v26.3115L27.6938 28zm9.777 20.9554h4.889l2.1385 5.356h4.4302L31.36 37.6104z" fill="#ed2224"/></g></svg>